<svg xmlns="http://www.w3.org/2000/svg" version="1.1" xmlns:xlink="http://www.w3.org/1999/xlink" xmlns:svgjs="http://svgjs.dev/svgjs" width="1500" height="1500" viewBox="0 0 1500 1500"><rect width="1500" height="1500" fill="#ffffff"></rect><g transform="matrix(0.6666666666666666,0,0,0.6666666666666666,250.88393442622947,244.40971659919023)"><svg viewBox="0 0 244 247" data-background-color="#1d366f" preserveAspectRatio="xMidYMid meet" height="1518" width="1500" xmlns="http://www.w3.org/2000/svg" xmlns:xlink="http://www.w3.org/1999/xlink"><g id="tight-bounds" transform="matrix(1,0,0,1,-0.21567999999999188,-0.09999999999999432)"><svg viewBox="0 0 244.43135999999998 247.2" height="247.2" width="244.43135999999998"><g><svg></svg></g><g><svg viewBox="0 0 244.43135999999998 247.2" height="247.2" width="244.43135999999998"><g transform="matrix(1,0,0,1,0,49.82594435399531)"><svg viewBox="0 0 244.43135999999998 147.54811129200937" height="147.54811129200937" width="244.43135999999998"><g><svg viewBox="0 0 244.43135999999998 147.54811129200937" height="147.54811129200937" width="244.43135999999998"><g transform="matrix(1,0,0,1,0,91.19065211511406)"><svg viewBox="0 0 244.43135999999998 56.35745917689531" height="56.35745917689531" width="244.43135999999998"><g id="textblocktransform"><svg viewBox="0 0 244.43135999999998 56.35745917689531" height="56.35745917689531" width="244.43135999999998" id="textblock"><g><svg viewBox="0 0 244.43135999999998 56.35745917689531" height="56.35745917689531" width="244.43135999999998"><g transform="matrix(1,0,0,1,0,0)"><svg width="244.43135999999998" viewBox="0.8 -36.7 207.73 47.900000000000006" height="56.35745917689531" data-palette-color="#ffffff"><path d="M21.6-9.8L21.6-9.8Q21.6-5 17.95-2.2 14.3 0.6 9.1 0.6L9.1 0.6Q5.6 0.6 3.33-1.18 1.05-2.95 0.8-4.2L0.8-4.2Q1.35-5.85 3.15-7.9 4.95-9.95 6.4-10.4L6.4-10.4Q8.95-8.75 11.15-3.05L11.15-3.05Q14.4-3.15 14.4-6.6L14.4-6.6Q14.4-8.5 12.88-11.28 11.35-14.05 9.55-16.48 7.75-18.9 6.23-21.93 4.7-24.95 4.7-27.3L4.7-27.3Q4.7-31.1 7.78-33.3 10.85-35.5 14.7-35.5 18.55-35.5 20.68-33.85 22.8-32.2 22.8-30.1 22.8-28 21.2-25.8 19.6-23.6 18-22.3L18-22.3 16.4-21Q17-20.2 17.85-18.95 18.7-17.7 20.15-14.7 21.6-11.7 21.6-9.8ZM17.78-26.2Q18.45-26.85 19-27.78 19.55-28.7 19.55-29.73 19.55-30.75 18.35-31.45 17.15-32.15 15.48-32.15 13.8-32.15 12.68-31.38 11.55-30.6 11.55-29.53 11.55-28.45 12.28-27.03 13-25.6 13.7-24.65L13.7-24.65 14.45-23.7Q14.95-23.95 16.03-24.75 17.1-25.55 17.78-26.2ZM36.15-19.65L36.15-19.65Q34.15-19.65 32.95-16.32 31.75-13 31.75-9.2L31.75-9.2Q31.75-3.2 35.45-3.2L35.45-3.2Q36.65-3.2 38-3.78 39.35-4.35 40.15-4.9L40.15-4.9 40.9-5.5 42.05-3.95Q41.65-3.4 40.45-2.5 39.25-1.6 38.2-1 37.15-0.4 35.5 0.1 33.85 0.6 32.25 0.6L32.25 0.6Q28.35 0.6 26.4-1.95 24.45-4.5 24.45-8.8L24.45-8.8Q24.45-14.75 27.72-18.45 31-22.15 36.15-22.15L36.15-22.15Q39.5-22.15 41.47-20.63 43.45-19.1 43.45-16.88 43.45-14.65 42.05-13.05L42.05-13.05Q40.8-13.05 39.15-13.6 37.5-14.15 36.65-14.95L36.65-14.95 37.4-19.35Q36.95-19.65 36.15-19.65ZM45.5 0.15L45.5 0.15 45.15 0.15Q45.05-0.25 45.05-1.68 45.05-3.1 46.4-9.35 47.75-15.6 47.75-16.5L47.75-16.5Q47.75-18.05 46.35-19.9L46.35-19.9 45.9-20.5 45.95-21.15Q48.65-21.9 54.6-21.9L54.6-21.9Q55.2-20.6 55.2-18.25L55.2-18.25Q55.75-19.15 57.5-20.65 59.25-22.15 61.1-22.15L61.1-22.15Q63.8-22.15 63.8-17.45L63.8-17.45Q63.55-17.15 63.12-16.68 62.7-16.2 61.42-15.35 60.15-14.5 58.95-14.3L58.95-14.3Q58.9-14.3 58.1-15.65 57.3-17 56.9-17L56.9-17Q55.65-16.55 54.7-15.5L54.7-15.5Q52.4-5.15 52.4-2.1L52.4-2.1Q52.4-1 52.45-0.55L52.45-0.55Q50.7 0.15 45.5 0.15ZM73.04-19.05Q73.04-16.95 71.69-11.83 70.34-6.7 70.34-5.13 70.34-3.55 70.79-3.55L70.79-3.55Q71.09-3.55 73.09-4.5L73.09-4.5 73.69-4.8 74.54-3.05Q74.09-2.65 73.34-2.05 72.59-1.45 70.54-0.43 68.49 0.6 66.74 0.6 64.99 0.6 63.99-0.48 62.99-1.55 62.99-3.38 62.99-5.2 64.24-9.88 65.49-14.55 65.49-15.95L65.49-15.95Q65.49-18.05 64.19-19.9L64.19-19.9 63.74-20.5 63.79-21.15Q66.44-21.9 72.39-21.9L72.39-21.9Q73.04-21.15 73.04-19.05ZM67.34-27.38Q66.34-28.35 66.34-30 66.34-31.65 67.72-32.9 69.09-34.15 70.89-34.15 72.69-34.15 73.69-33.15 74.69-32.15 74.69-30.53 74.69-28.9 73.27-27.65 71.84-26.4 70.09-26.4 68.34-26.4 67.34-27.38ZM74.84 11.2L74.84 11.2Q74.59 10.6 74.59 8.55 74.59 6.5 76.54-2.48 78.49-11.45 78.49-16.3L78.49-16.3Q78.49-17.25 78.04-18.32 77.59-19.4 77.09-20L77.09-20 76.64-20.55 76.69-21.2Q79.04-21.95 84.99-21.95L84.99-21.95Q85.54-20.9 85.69-19L85.69-19Q89.54-22.15 92.12-22.15 94.69-22.15 96.27-20 97.84-17.85 97.84-13.7L97.84-13.7Q97.84-6.45 95.19-2.93 92.54 0.6 88.49 0.6L88.49 0.6Q86.39 0.6 84.99 0L84.99 0 84.49-0.2 84.84-2.15Q85.29-2.05 85.89-2.05L85.89-2.05Q87.19-2.05 88.17-3.25 89.14-4.45 89.64-6.3L89.64-6.3Q90.64-10 90.64-13.15L90.64-13.15Q90.64-17.65 88.79-17.65L88.79-17.65Q87.34-17.65 85.69-16.5L85.69-16.5Q85.49-13 83.64-4.25 81.79 4.5 81.79 9.85L81.79 9.85Q79.09 10.95 74.84 11.2ZM110.94-21.55L115.79-21.55Q115.69-20.3 114.94-18.65L114.94-18.65Q113.04-18.85 111.34-18.85L111.34-18.85 110.44-18.85Q108.14-7.7 108.14-4.95L108.14-4.95Q108.14-3.5 108.76-3.5 109.39-3.5 112.09-4.75L112.09-4.75 112.99-3.1Q108.54 0.6 104.74 0.6L104.74 0.6Q102.99 0.6 101.86-0.5 100.74-1.6 100.74-3.43 100.74-5.25 101.16-7.55 101.59-9.85 102.34-13.18 103.09-16.5 103.44-18.55L103.44-18.55Q101.59-18.4 100.69-18.25L100.69-18.25Q100.59-18.85 100.59-19.88 100.59-20.9 100.74-21.55L100.74-21.55 103.89-21.55Q104.29-24.25 104.29-26.65L104.29-26.65 104.24-28.2 104.24-28.35Q108.14-29.7 111.59-29.7L111.59-29.7Q111.79-28.7 111.79-27.2 111.79-25.7 110.94-21.55L110.94-21.55ZM127.89-13.85L127.89-13.85Q126.54-13.85 125.84-13.9L125.84-13.9Q123.69-4.5 123.44-0.85L123.44-0.85Q121.29 0.2 116.89 0.2L116.89 0.2Q115.94 0.2 115.59 0.15L115.59 0.15Q115.94-2.8 118.59-14.68 121.24-26.55 121.24-29.65L121.24-29.65Q121.24-30.25 120.56-31.23 119.89-32.2 119.19-32.85L119.19-32.85 118.54-33.5 118.69-34.25Q127.09-35.5 132.29-35.5L132.29-35.5Q142.59-35.5 142.59-27.1L142.59-27.1Q142.59-21.5 138.89-17.68 135.19-13.85 127.89-13.85ZM126.59-17.2L127.09-17.2Q130.94-17.2 132.91-20.1 134.89-23 134.89-27.85L134.89-27.85Q134.89-29.85 134.14-31.13 133.39-32.4 131.94-32.4L131.94-32.4Q130.99-32.4 129.59-32.05L129.59-32.05Q128.79-26.8 126.59-17.2L126.59-17.2ZM157.08-20.7L157.08-20.7Q157.18-20.8 157.63-22L157.63-22Q159.98-22 163.93-20.6L163.93-20.6Q162.68-16.45 161.93-11.93 161.18-7.4 161.18-5.48 161.18-3.55 161.58-3.55L161.58-3.55Q161.88-3.55 163.78-4.5L163.78-4.5 164.38-4.8 165.28-3.05Q164.83-2.65 164.11-2.05 163.38-1.45 161.38-0.43 159.38 0.6 157.78 0.6L157.78 0.6Q154.68 0.6 154.18-2.2L154.18-2.2Q150.98 0.6 148.41 0.6 145.83 0.6 144.06-1.4 142.28-3.4 142.28-7.7L142.28-7.7Q142.28-14.4 145.03-18.28 147.78-22.15 151.68-22.15L151.68-22.15Q154.48-22.15 157.08-20.7ZM151.38-3.65L151.38-3.65Q152.58-3.65 154.08-4.6L154.08-4.6Q154.43-11.65 156.43-18.55L156.43-18.55Q154.93-19.2 153.88-19.2L153.88-19.2Q152.08-19.2 150.81-15.68 149.53-12.15 149.53-7.9 149.53-3.65 151.38-3.65ZM167.18 0.15L167.18 0.15 166.83 0.15Q166.73-0.25 166.73-1.68 166.73-3.1 168.08-9.35 169.43-15.6 169.43-16.5L169.43-16.5Q169.43-18.05 168.03-19.9L168.03-19.9 167.58-20.5 167.63-21.15Q170.33-21.9 176.28-21.9L176.28-21.9Q176.88-20.6 176.88-18.25L176.88-18.25Q177.43-19.15 179.18-20.65 180.93-22.15 182.78-22.15L182.78-22.15Q185.48-22.15 185.48-17.45L185.48-17.45Q185.23-17.15 184.81-16.68 184.38-16.2 183.11-15.35 181.83-14.5 180.63-14.3L180.63-14.3Q180.58-14.3 179.78-15.65 178.98-17 178.58-17L178.58-17Q177.33-16.55 176.38-15.5L176.38-15.5Q174.08-5.15 174.08-2.1L174.08-2.1Q174.08-1 174.13-0.55L174.13-0.55Q172.38 0.15 167.18 0.15ZM190.03-33L190.03-33Q190.03-34.65 189.73-35.35L189.73-35.35Q193.63-36.7 197.08-36.7L197.08-36.7Q197.53-36.25 197.53-34.4L197.53-34.4Q197.53-30.25 194.78-18.5L194.78-18.5Q199.23-22.15 203.58-22.15L203.58-22.15Q205.53-22.15 206.88-20.95 208.23-19.75 208.23-17.45L208.23-17.45Q208.23-13.15 201.18-11.2L201.18-11.2Q202.83-6 204.08-4.15L204.08-4.15Q204.63-3.35 204.88-3.35L204.88-3.35Q205.43-3.35 207.18-4.2L207.18-4.2 207.73-4.45 208.53-2.75Q207.33-1.65 205.2-0.53 203.08 0.6 201.33 0.6L201.33 0.6Q197.43 0.6 195.88-6.5L195.88-6.5Q195.18-9.55 195.03-12.2L195.03-12.2Q198.23-12.95 199.8-14.03 201.38-15.1 201.38-16.78 201.38-18.45 199.68-18.45 197.98-18.45 193.98-15.05L193.98-15.05Q191.48-4.5 191.48-0.6L191.48-0.6Q188.73 0.2 184.33 0.2L184.33 0.2Q184.28-0.65 184.28-1.3L184.28-1.3Q184.28-3.45 187.15-16 190.03-28.55 190.03-33Z" opacity="1" transform="matrix(1,0,0,1,0,0)" fill="#000000" class="wordmark-text-0" data-fill-palette-color="primary" id="text-0"></path></svg></g></svg></g></svg></g></svg></g><g transform="matrix(1,0,0,1,75.26919040834099,0)"><svg viewBox="0 0 93.89297918331799 77.88600858246933" height="77.88600858246933" width="93.89297918331799"><g><svg xmlns="http://www.w3.org/2000/svg" xmlns:xlink="http://www.w3.org/1999/xlink" version="1.1" x="8" y="0" viewBox="5.458999999999989 5.043000000000006 89.396 89.388" enable-background="new 0 0 100 100" xml:space="preserve" height="77.88600858246933" width="77.89297918331799" class="icon-icon-0" data-fill-palette-color="accent" id="icon-0"><path fill="#000000" d="M85.312 77.29c5.97-7.598 9.543-17.161 9.543-27.549 0-24.647-20.052-44.698-44.698-44.698-24.647 0-44.698 20.051-44.698 44.698 0 24.643 20.051 44.69 44.698 44.69 14.104 0 26.693-6.571 34.891-16.805 0.109-0.089 0.224-0.17 0.329-0.263L85.312 77.29zM50.157 9.591c22.139 0 40.149 18.011 40.149 40.15 0 9.295-3.186 17.856-8.511 24.669-1.805 1.369-4.008 2.122-6.285 2.122-2.527 0-4.966-0.92-6.867-2.588l-1.5-1.316-1.499 1.316c-1.901 1.669-4.34 2.588-6.867 2.588-2.196 0-4.324-0.695-6.092-1.973v-7.788c11.822-1.148 21.096-11.141 21.096-23.259 0-12.887-10.483-23.37-23.371-23.37-12.886 0-23.371 10.483-23.371 23.37 0 12.119 9.273 22.111 21.097 23.259v7.788c-1.768 1.277-3.896 1.973-6.093 1.973-2.526 0-4.965-0.919-6.866-2.588l-1.5-1.316-1.5 1.316c-1.902 1.668-4.341 2.588-6.867 2.588-2.527 0-4.966-0.919-6.867-2.588L18.29 74.12c-5.189-6.764-8.283-15.215-8.283-24.379C10.007 27.602 28.018 9.591 50.157 9.591zM52.686 50.956l8.263-8.264-3.216-3.216-5.047 5.047v-8.058h-4.549v16.073l-7.892-7.893-3.217 3.216 11.109 11.109v3.222c-9.31-1.127-16.549-9.071-16.549-18.68 0-10.379 8.444-18.822 18.823-18.822 10.378 0 18.824 8.443 18.824 18.822 0 9.609-7.239 17.553-16.549 18.68V50.956zM48.137 89.832c-8.691-0.432-16.658-3.647-23.04-8.763 0.072 0.002 0.143 0.01 0.214 0.01 2.996 0 5.906-0.898 8.367-2.559 2.46 1.66 5.37 2.559 8.366 2.559 2.118 0 4.189-0.457 6.093-1.307V89.832zM52.686 79.772c1.903 0.85 3.974 1.307 6.092 1.307 2.996 0 5.906-0.898 8.366-2.559 2.381 1.606 5.183 2.492 8.075 2.548-6.257 5.016-14.041 8.196-22.533 8.728V79.772z" data-fill-palette-color="accent"></path></svg></g></svg></g><g><rect width="75.26919040834099" height="5.08237382947029" y="71.80363475299905" x="169.162169591659" fill="#000000" data-fill-palette-color="accent"></rect><rect width="75.26919040834099" height="5.08237382947029" y="71.80363475299905" x="0" fill="#000000" data-fill-palette-color="accent"></rect><rect width="75.26919040834099" height="5.08237382947029" y="61.63888709405846" x="169.162169591659" fill="#000000" data-fill-palette-color="accent"></rect><rect width="75.26919040834099" height="5.08237382947029" y="61.63888709405846" x="0" fill="#000000" data-fill-palette-color="accent"></rect></g></svg></g></svg></g><path d="M0 43.826L0 1 244.431 1 244.431 43.826 239.349 43.826 239.349 6.082 5.082 6.082 5.082 43.826 0 43.826M0 203.374L0 246.2 244.431 246.2 244.431 203.374 239.349 203.374 239.349 241.118 5.082 241.118 5.082 203.374 0 203.374" fill="#000000" stroke="transparent" data-fill-palette-color="tertiary"></path></svg></g><defs></defs></svg><rect width="244.43135999999998" height="247.2" fill="none" stroke="none" visibility="hidden"></rect></g></svg></g></svg>